<svg width="36" height="35" viewBox="0 0 36 35" fill="none" xmlns="http://www.w3.org/2000/svg">
<path d="M13.195 0.977539C10.7839 0.977539 8.81128 2.88831 8.81128 5.2237V9.46986H0.438372C0.175349 9.46986 0.0438372 9.63971 0.0438372 9.85201V20.0853C0.0438372 21.2742 1.00826 22.2083 2.2357 22.2083H32.9217C34.1492 22.2083 35.1136 21.2742 35.1136 20.0853V9.85201C35.1136 9.59724 34.9382 9.46986 34.7191 9.46986H26.3462V5.2237C26.3462 2.88831 24.3735 0.977539 21.9624 0.977539L13.195 0.977539ZM13.195 5.2237H21.9624V9.46986H13.195V5.2237ZM0.0438372 26.0723V34.5647C0.0438372 34.777 0.219186 34.9468 0.438372 34.9468H34.6752C34.8944 34.9468 35.0698 34.777 35.0698 34.5647V26.0723C34.3684 26.3271 33.667 26.4545 32.8779 26.4545H2.19186C1.40279 26.4545 0.701395 26.2847 0 26.0723H0.0438372Z" fill="white"/>
</svg>
